# File created by Blade
# Date/Time:  Tue Sep 28 14:35:47 2010
#---------------------------------------------------------
:version 1.10
:name HOM
:units
  mass 1.0
  length 1.000000
  angle deg
:documentation
     Acclaim Skeleton File
:root
   axis xyz
   order TX TY TZ RX RY RZ
   position 0.000000 0.000000 0.000000
   orientation 0 0 0
:bonedata
   begin
      id 1
      name LeftUpLeg_dum
      direction 1.000000 0.000000 0.000000
      length 3.677894
      axis 0.0 0.0 0.0 xyz
   end
   begin
      id 2
      name RightUpLeg_dum
      direction -1.000000 0.000000 0.000000
      length 3.677894
      axis 0.0 0.0 0.0 xyz
   end
   begin
      id 3
      name Spine_dum
      direction 0.000000 1.000000 0.000000
      length 0.039370
      axis 0.0 0.0 0.0 xyz
   end
   begin
      id 4
      name LeftUpLeg
      direction 0.000000 -1.000000 0.000000
      length 18.389491
      axis 0.0 0.0 0.0 xyz
      dof rx ry rz
   end
   begin
      id 5
      name LeftLeg
      direction 0.000000 -1.000000 0.000000
      length 16.918313
      axis 0.0 0.0 0.0 xyz
      dof rx ry rz
   end
   begin
      id 6
      name LeftFoot
      direction 0.000000 -0.258819 0.965926
      length 6.436326
      axis 15.0 0.0 0.0 xyz
      dof rx ry rz
   end
   begin
      id 7
      name LeftToeBase
      direction 0.000000 0.000000 1.000000
      length 2.952750
      axis 0.0 0.0 0.0 xyz
      dof rx ry rz
   end
   begin
      id 8
      name RightUpLeg
      direction 0.000000 -1.000000 0.000000
      length 18.389491
      axis 0.0 0.0 0.0 xyz
      dof rx ry rz
   end
   begin
      id 9
      name RightLeg
      direction 0.000000 -1.000000 0.000000
      length 16.918313
      axis 0.0 0.0 0.0 xyz
      dof rx ry rz
   end
   begin
      id 10
      name RightFoot
      direction 0.000000 -0.258819 0.965926
      length 6.436326
      axis 15.0 0.0 0.0 xyz
      dof rx ry rz
   end
   begin
      id 11
      name RightToeBase
      direction 0.000000 0.000000 1.000000
      length 2.952750
      axis 0.0 0.0 0.0 xyz
      dof rx ry rz
   end
   begin
      id 12
      name Spine
      direction 0.000000 1.000000 0.000000
      length 9.194745
      axis 0.0 0.0 0.0 xyz
      dof rx ry rz
   end
   begin
      id 13
      name Spine1
      direction 0.000000 1.000000 0.000000
      length 0.000000
      axis 0.0 0.0 0.0 xyz
      dof rx ry rz
   end
   begin
      id 14
      name Spine1_dum1
      direction 0.000000 1.000000 0.000000
      length 9.194745
      axis 0.0 0.0 0.0 xyz
   end
   begin
      id 15
      name Spine1_dum2
      direction 0.000000 1.000000 0.000000
      length 9.194745
      axis 0.0 0.0 0.0 xyz
   end
   begin
      id 16
      name Spine1_dum3
      direction 0.000000 1.000000 0.000000
      length 9.194745
      axis 0.0 0.0 0.0 xyz
   end
   begin
      id 17
      name Neck
      direction 0.000000 1.000000 0.000000
      length 4.229598
      axis 0.0 0.0 0.0 xyz
      dof rx ry rz
   end
   begin
      id 18
      name Head
      direction 0.000000 1.000000 0.000000
      length 4.527550
      axis 0.0 0.0 0.0 xyz
      dof rx ry rz
   end
   begin
      id 19
      name LeftShoulder
      direction 1.000000 -0.000004 0.000000
      length 5.516839
      axis 0.0 0.0 -90.0 xyz
      dof rx ry rz
   end
   begin
      id 20
      name LeftArm
      direction 1.000000 -0.000004 0.000000
      length 11.033679
      axis 0.0 0.0 -90.0 xyz
      dof rx ry rz
   end
   begin
      id 21
      name LeftForeArm
      direction 1.000000 -0.000004 0.000000
      length 10.114232
      axis 0.0 0.0 -90.0 xyz
      dof rx ry rz
   end
   begin
      id 22
      name LeftHand
      direction 0.000000 0.000000 0.000000
      length 0.000000
      axis 0.0 0.0 -90.0 xyz
      dof rx ry rz
   end
   begin
      id 23
      name LeftHand_dum1
      direction 0.000000 0.000000 0.000000
      length 0.000000
      axis 0.0 0.0 -90.0 xyz
   end
   begin
      id 24
      name LeftHand_dum2
      direction 1.000000 -0.000004 0.000000
      length 3.937000
      axis 0.0 0.0 -90.0 xyz
   end
   begin
      id 25
      name LeftHandThumb
      direction 0.000000 0.000000 1.000000
      length 3.937000
      axis 0.0 0.0 -90.0 xyz
      dof rx ry rz
   end
   begin
      id 26
      name RightShoulder
      direction -1.000000 -0.000004 0.000000
      length 5.516839
      axis 0.0 0.0 90.0 xyz
      dof rx ry rz
   end
   begin
      id 27
      name RightArm
      direction -1.000000 -0.000004 0.000000
      length 11.033679
      axis 0.0 0.0 90.0 xyz
      dof rx ry rz
   end
   begin
      id 28
      name RightForeArm
      direction -1.000000 -0.000004 0.000000
      length 10.114232
      axis 0.0 0.0 90.0 xyz
      dof rx ry rz
   end
   begin
      id 29
      name RightHand
      direction 0.000000 0.000000 0.000000
      length 0.000000
      axis 0.0 0.0 90.0 xyz
      dof rx ry rz
   end
   begin
      id 30
      name RightHand_dum1
      direction 0.000000 0.000000 0.000000
      length 0.000000
      axis 0.0 0.0 90.0 xyz
   end
   begin
      id 31
      name RightHand_dum2
      direction -1.000000 -0.000004 0.000000
      length 5.393690
      axis 0.0 0.0 90.0 xyz
   end
   begin
      id 32
      name RightHandThumb
      direction 0.000000 0.000000 1.000000
      length 3.937000
      axis 0.0 0.0 90.0 xyz
      dof rx ry rz
   end
:hierarchy
   begin
      root LeftUpLeg_dum RightUpLeg_dum Spine_dum
      LeftUpLeg_dum LeftUpLeg
      RightUpLeg_dum RightUpLeg
      Spine_dum Spine
      LeftUpLeg LeftLeg
      LeftLeg LeftFoot
      LeftFoot LeftToeBase
      RightUpLeg RightLeg
      RightLeg RightFoot
      RightFoot RightToeBase
      Spine Spine1
      Spine1 Spine1_dum1 Spine1_dum2 Spine1_dum3
      Spine1_dum1 Neck
      Spine1_dum2 LeftShoulder
      Spine1_dum3 RightShoulder
      Neck Head
      LeftShoulder LeftArm
      LeftArm LeftForeArm
      LeftForeArm LeftHand
      LeftHand LeftHand_dum1 LeftHand_dum2
      LeftHand_dum1 LeftHandThumb
      RightShoulder RightArm
      RightArm RightForeArm
      RightForeArm RightHand
      RightHand RightHand_dum1 RightHand_dum2
      RightHand_dum1 RightHandThumb
   end

# File created by Blade
# Date/Time:  Tue Sep 28 14:35:42 2010
# Frame Rate: 200.000 fps
#------------------------------------------------------
:FULLY-SPECIFIED
:DEGREES
161
root  -1.347369 37.339235 -80.088995 6.795291 -4.547907 -2.743220
LeftUpLeg  -20.736518 10.785912 3.404952
LeftLeg  41.913077 -0.000000 0.000000
LeftFoot  -0.658861 15.446963 8.627301
LeftToeBase  -14.948011 0.000000 -0.000000
RightUpLeg  -8.574284 -26.123944 6.962886
RightLeg  20.293329 -0.000000 0.000000
RightFoot  -8.611429 7.659905 -17.896331
RightToeBase  -13.032353 0.000000 -0.000000
Spine  -14.875681 -2.042567 1.553026
Spine1  15.851035 -1.187755 5.013883
Neck  11.595729 5.064721 -7.969240
Head  -10.628955 3.267953 1.294099
LeftShoulder  -10.012449 -10.268907 -25.726794
LeftArm  -3.263625 41.951575 -35.926370
LeftForeArm  35.081945 -0.000000 0.000000
LeftHand  7.706162 -10.246489 2.582438
LeftHandThumb  0.000000 -0.000000 0.000000
RightShoulder  1.899598 6.032841 23.730692
RightArm  1.686990 -36.787195 32.777653
RightForeArm  29.927013 -0.000000 0.000000
RightHand  6.364389 15.245758 0.376289
RightHandThumb  0.000000 -0.000000 0.000000
162
root  -1.358970 37.342614 -80.044118 6.775527 -4.564939 -2.728252
LeftUpLeg  -20.910928 10.700339 3.375934
LeftLeg  41.928700 -0.000000 0.000000
LeftFoot  -0.733565 15.602072 8.636730
LeftToeBase  -14.839183 0.000000 -0.000000
RightUpLeg  -8.512471 -26.090458 6.924614
RightLeg  20.334038 -0.000000 0.000000
RightFoot  -8.539505 7.624909 -17.911130
RightToeBase  -13.210877 0.000000 -0.000000
Spine  -14.834473 -2.029639 1.559315
Spine1  15.917383 -1.181113 5.035791
Neck  11.507430 5.240784 -7.949445
Head  -10.735299 3.405055 1.237251
LeftShoulder  -9.913485 -10.533584 -25.769223
LeftArm  -3.401101 42.410315 -36.156025
LeftForeArm  35.149761 -0.000000 0.000000
LeftHand  7.621841 -10.403396 2.664371
LeftHandThumb  0.000000 -0.000000 0.000000
RightShoulder  2.001041 6.251836 23.852519
RightArm  1.608157 -37.193479 32.999937
RightForeArm  30.056419 -0.000000 0.000000
RightHand  6.449359 15.657928 0.467039
RightHandThumb  0.000000 -0.000000 0.000000
163
root  -1.374703 37.342438 -79.977551 6.741374 -4.627710 -2.705133
LeftUpLeg  -21.143331 10.587346 3.359555
LeftLeg  42.183975 -0.000000 0.000000
LeftFoot  -0.666932 15.755598 8.621106
LeftToeBase  -14.961959 0.000000 -0.000000
RightUpLeg  -8.372116 -26.005571 6.839065
RightLeg  20.365125 -0.000000 0.000000
RightFoot  -8.531062 7.588267 -17.887775
RightToeBase  -13.408202 0.000000 -0.000000
Spine  -14.848011 -2.016747 1.545567
Spine1  15.938009 -1.164546 5.044203
Neck  11.479033 5.235685 -7.964238
Head  -10.593827 3.375817 1.258052
LeftShoulder  -9.896070 -10.454770 -25.825289
LeftArm  -3.324572 42.485758 -36.277480
LeftForeArm  35.167684 -0.000000 0.000000
LeftHand  7.658719 -9.974998 2.676219
LeftHandThumb  0.000000 -0.000000 0.000000
RightShoulder  2.032338 6.161562 23.950295
RightArm  1.694936 -37.237726 33.158907
RightForeArm  30.164927 -0.000000 0.000000
RightHand  6.419605 15.250138 0.459740
RightHandThumb  0.000000 -0.000000 0.000000
164
root  -1.387227 37.342296 -79.922302 6.720670 -4.660349 -2.678416
LeftUpLeg  -21.362882 10.553711 3.328759
LeftLeg  42.322175 -0.000000 0.000000
LeftFoot  -0.794950 15.807813 8.573941
LeftToeBase  -14.771537 0.000000 -0.000000
RightUpLeg  -8.247272 -25.984769 6.762529
RightLeg  20.350504 -0.000000 0.000000
RightFoot  -8.565822 7.615501 -17.845232
RightToeBase  -13.358521 0.000000 -0.000000
Spine  -14.831506 -2.004861 1.538317
Spine1  15.987846 -1.153084 5.056346
Neck  11.421840 5.284741 -7.972236
Head  -10.586884 3.399007 1.216509
LeftShoulder  -9.816903 -10.574805 -25.850411
LeftArm  -3.383043 42.870813 -36.472534
LeftForeArm  35.203817 -0.000000 0.000000
LeftHand  7.560744 -9.969045 2.653754
LeftHandThumb  0.000000 -0.000000 0.000000
RightShoulder  2.098161 6.210430 24.038073
RightArm  1.722756 -37.468798 33.337084
RightForeArm  30.287804 -0.000000 0.000000
RightHand  6.442128 15.616524 0.390870
RightHandThumb  0.000000 -0.000000 0.000000
165
root  -1.401412 37.340931 -79.863026 6.702795 -4.707051 -2.650762
LeftUpLeg  -21.582142 10.502569 3.304546
LeftLeg  42.447337 -0.000000 0.000000
LeftFoot  -0.851705 15.891313 8.505028
LeftToeBase  -14.632980 0.000000 -0.000000
RightUpLeg  -8.098459 -25.946358 6.677811
RightLeg  20.317684 -0.000000 0.000000
RightFoot  -8.614972 7.631298 -17.840914
RightToeBase  -13.399970 0.000000 -0.000000
Spine  -14.823214 -1.988471 1.524579
Spine1  16.019689 -1.134085 5.060237
Neck  11.376651 5.278093 -7.979230
Head  -10.548580 3.372680 1.225871
LeftShoulder  -9.776328 -10.572448 -25.889550
LeftArm  -3.326863 42.980739 -36.598996
LeftForeArm  35.226549 -0.000000 0.000000
LeftHand  7.561739 -9.777877 2.752282
LeftHandThumb  0.000000 -0.000000 0.000000
RightShoulder  2.159623 6.247778 24.103333
RightArm  1.729136 -37.746819 33.515783
RightForeArm  30.475333 -0.000000 0.000000
RightHand  6.446621 15.396379 0.505671
RightHandThumb  0.000000 -0.000000 0.000000
166
root  -1.417114 37.342385 -79.798689 6.678214 -4.758332 -2.624769
LeftUpLeg  -21.816060 10.548333 3.245835
LeftLeg  42.505173 -0.000000 0.000000
LeftFoot  -0.670782 16.088342 8.759301
LeftToeBase  -14.714133 0.000000 -0.000000
RightUpLeg  -7.954442 -25.920412 6.596750
RightLeg  20.300978 -0.000000 0.000000
RightFoot  -8.625445 7.667722 -17.843381
RightToeBase  -13.353714 0.000000 -0.000000
Spine  -14.813907 -1.968281 1.505501
Spine1  16.055961 -1.109623 5.065754
Neck  11.328174 5.286093 -7.979180
Head  -10.544934 3.368146 1.231530
LeftShoulder  -9.732375 -10.589492 -25.926011
LeftArm  -3.293204 43.140402 -36.733559
LeftForeArm  35.226840 -0.000000 0.000000
LeftHand  7.554678 -9.655981 2.748676
LeftHandThumb  0.000000 -0.000000 0.000000
RightShoulder  2.236125 6.294128 24.186064
RightArm  1.732637 -38.048224 33.709932
RightForeArm  30.587052 -0.000000 0.000000
RightHand  6.485845 15.505897 0.366982
RightHandThumb  0.000000 -0.000000 0.000000
167
root  -1.432130 37.343048 -79.735328 6.659044 -4.811632 -2.592255
LeftUpLeg  -22.042066 10.574671 3.197383
LeftLeg  42.560922 -0.000000 0.000000
LeftFoot  -0.638620 16.209214 8.816596
LeftToeBase  -14.881072 0.000000 -0.000000
RightUpLeg  -7.802078 -25.901292 6.508523
RightLeg  20.244275 -0.000000 0.000000
RightFoot  -8.655080 7.751970 -17.765493
RightToeBase  -13.288732 0.000000 -0.000000
Spine  -14.806651 -1.950305 1.480061
Spine1  16.099516 -1.085447 5.066119
Neck  11.266310 5.338626 -7.982686
Head  -10.537123 3.393590 1.219906
LeftShoulder  -9.673063 -10.644603 -25.954356
LeftArm  -3.301617 43.411542 -36.898058
LeftForeArm  35.256357 -0.000000 0.000000
LeftHand  7.575068 -9.689281 2.662392
LeftHandThumb  0.000000 -0.000000 0.000000
RightShoulder  2.297089 6.286095 24.256673
RightArm  1.786520 -38.238174 33.875290
RightForeArm  30.711144 -0.000000 0.000000
RightHand  6.505017 15.844705 0.396841
RightHandThumb  0.000000 -0.000000 0.000000
168
root  -1.445678 37.342993 -79.673005 6.647562 -4.859524 -2.554013
LeftUpLeg  -22.261026 10.563454 3.157105
LeftLeg  42.588166 -0.000000 0.000000
LeftFoot  -0.695754 16.283069 8.706704
LeftToeBase  -14.626332 0.000000 -0.000000
RightUpLeg  -7.636208 -25.927586 6.411845
RightLeg  20.169349 -0.000000 0.000000
RightFoot  -8.723248 7.850947 -17.772244
RightToeBase  -13.210515 0.000000 -0.000000
Spine  -14.800938 -1.924074 1.449907
Spine1  16.143005 -1.051668 5.065282
Neck  11.210468 5.314626 -7.961414
Head  -10.508398 3.393840 1.218912
LeftShoulder  -9.641092 -10.609541 -25.970574
LeftArm  -3.197008 43.462640 -36.980733
LeftForeArm  35.237739 -0.000000 0.000000
LeftHand  7.492111 -9.769154 2.722188
LeftHandThumb  0.000000 -0.000000 0.000000
RightShoulder  2.388935 6.393223 24.308742
RightArm  1.753808 -38.645259 34.085645
RightForeArm  30.841324 -0.000000 0.000000
RightHand  6.567191 15.854287 0.330729
RightHandThumb  0.000000 -0.000000 0.000000
169
root  -1.458688 37.341398 -79.609375 6.631467 -4.905038 -2.521239
LeftUpLeg  -22.469302 10.545359 3.112792
LeftLeg  42.548523 -0.000000 0.000000
LeftFoot  -0.591240 16.422404 8.839523
LeftToeBase  -14.779904 0.000000 -0.000000
RightUpLeg  -7.498783 -25.963865 6.327761
RightLeg  20.131901 -0.000000 0.000000
RightFoot  -8.740143 7.913652 -17.803947
RightToeBase  -13.377677 0.000000 -0.000000
Spine  -14.793803 -1.904932 1.424269
Spine1  16.175985 -1.025696 5.065997
Neck  11.164495 5.317440 -7.949294
Head  -10.505016 3.410233 1.215481
LeftShoulder  -9.579727 -10.681858 -25.983299
LeftArm  -3.173174 43.660123 -37.098248
LeftForeArm  35.197463 -0.000000 0.000000
LeftHand  7.362672 -9.404140 2.780027
LeftHandThumb  0.000000 -0.000000 0.000000
RightShoulder  2.445449 6.369259 24.360544
RightArm  1.817547 -38.839365 34.232028
RightForeArm  31.010530 -0.000000 0.000000
RightHand  6.624136 15.917325 0.390382
RightHandThumb  0.000000 -0.000000 0.000000
170
root  -1.470957 37.341761 -79.546581 6.619362 -4.945270 -2.486808
LeftUpLeg  -22.676668 10.533062 3.070690
LeftLeg  42.475706 -0.000000 0.000000
LeftFoot  -0.701111 16.521035 8.635986
LeftToeBase  -14.404256 0.000000 -0.000000
RightUpLeg  -7.359340 -25.998332 6.236020
RightLeg  20.091098 -0.000000 0.000000
RightFoot  -8.757767 7.988833 -17.781546
RightToeBase  -13.301069 0.000000 -0.000000
Spine  -14.778550 -1.881816 1.396720
Spine1  16.218526 -0.995940 5.062549
Neck  11.109706 5.308399 -7.926169
Head  -10.518650 3.423805 1.208627
LeftShoulder  -9.540073 -10.679498 -26.010901
LeftArm  -3.116351 43.753176 -37.205477
LeftForeArm  35.216764 -0.000000 0.000000
LeftHand  7.375969 -9.560447 2.860337
LeftHandThumb  0.000000 -0.000000 0.000000
RightShoulder  2.514229 6.399529 24.408623
RightArm  1.852502 -39.104204 34.389591
RightForeArm  31.170628 -0.000000 0.000000
RightHand  6.592541 15.794386 0.297174
RightHandThumb  0.000000 -0.000000 0.000000
